<svg width="195" height="172" viewBox="0 0 195 172" fill="none" xmlns="http://www.w3.org/2000/svg">
<path d="M16.2568 0.5625C23.585 0.492836 30.9131 0.439606 38.2416 0.407063C41.6449 0.391441 45.048 0.370266 48.4512 0.336182C52.3681 0.2972 56.285 0.282763 60.2021 0.269531C62.0259 0.246305 62.0259 0.246305 63.8865 0.22261C74.5945 0.220483 74.5945 0.220484 79.2568 3.5625C83.6318 9.2381 84.4097 13.5449 84.4621 20.5222C84.472 21.3322 84.4819 22.1422 84.4921 22.9767C84.5237 25.655 84.5485 28.3333 84.5732 31.0117C84.5938 32.8683 84.6148 34.7249 84.6362 36.5815C84.6914 41.469 84.7408 46.3566 84.789 51.2441C84.8393 56.2312 84.8949 61.2181 84.9502 66.2051C85.0577 75.9908 85.1592 85.7766 85.2568 95.5625C90.8918 95.7775 90.8918 95.7775 96.0342 93.8672C96.7 93.4882 97.3659 93.1092 98.052 92.7188C98.7589 92.2959 99.4659 91.8731 100.194 91.4375C101.341 90.7762 101.341 90.7762 102.51 90.1016C104.191 89.129 105.868 88.1491 107.541 87.1631C110.41 85.4724 113.289 83.8013 116.171 82.1328C120.27 79.7565 124.36 77.3663 128.444 74.9648C132.053 72.8443 135.675 70.75 139.319 68.6914C151 62.0642 159.748 56.0729 163.87 42.5508C165.587 33.7239 163.789 26.0284 158.937 18.5195C153.568 11.6405 146.536 9.33671 138.257 7.5625C144.689 1.12995 156.391 0.0385846 165.069 0C173.62 0.131674 180.398 1.37447 187.132 6.9375C192.191 13.1875 194.734 17.9124 194.589 25.9414C192.876 39.4661 183.28 48.4553 173.119 56.479C168.088 60.1415 162.693 63.1116 157.257 66.125C156.03 66.8142 154.804 67.5044 153.578 68.1956C151.057 69.6169 148.534 71.0347 146.009 72.4502C136.973 77.5263 128.014 82.7401 119.05 87.9438C116.518 89.4113 113.98 90.8684 111.44 92.3242C110.087 93.1112 108.734 93.8988 107.382 94.6875C106.271 95.3295 105.159 95.9714 104.015 96.6328C100.53 99.0712 98.1593 101.758 96.2568 105.562C96.157 107.062 96.1185 108.566 96.1115 110.069C96.1052 111.004 96.0988 111.939 96.0922 112.902C96.0911 113.917 96.09 114.931 96.0888 115.977C96.0855 117.02 96.0822 118.064 96.0788 119.139C96.0737 121.353 96.0714 123.567 96.0715 125.782C96.0693 129.153 96.0512 132.524 96.0322 135.895C96.0293 138.047 96.0273 140.199 96.0263 142.352C96.0156 143.855 96.0156 143.855 96.0046 145.389C96.0005 154.889 96.0005 154.889 99.5617 163.531C106.082 167.499 120.164 165.658 127.381 164.105C134.427 161.784 140.103 156.475 145.663 151.754C155.699 143.275 155.699 143.275 161.444 142.938C168.06 144.022 172.298 148.304 176.874 152.949C177.376 153.452 177.878 153.954 178.395 154.472C179.445 155.524 180.492 156.579 181.536 157.636C183.143 159.261 184.758 160.878 186.374 162.494C194.257 170.415 194.257 170.415 194.257 171.562C182.513 171.632 170.769 171.685 159.025 171.718C153.571 171.734 148.118 171.755 142.664 171.789C137.399 171.821 132.135 171.839 126.87 171.847C124.863 171.853 122.856 171.863 120.85 171.88C118.035 171.902 115.22 171.904 112.405 171.903C111.579 171.914 110.754 171.925 109.903 171.936C104.611 171.908 100.954 171.05 96.2568 168.562C89.0093 161.119 89.1122 151.931 88.9404 142.133C88.9196 141.142 88.8988 140.152 88.8774 139.132C88.8123 135.984 88.7532 132.836 88.6943 129.688C88.6511 127.547 88.6075 125.406 88.5635 123.266C88.4567 118.031 88.3548 112.797 88.2568 107.562C84.1796 108.15 81.3228 109.473 77.7998 111.582C76.7692 112.192 75.7386 112.803 74.6767 113.432C73.0767 114.394 73.0767 114.394 71.4443 115.375C51.727 127.143 51.727 127.143 46.4443 127C45.716 126.999 44.9877 126.997 44.2373 126.996C41.7435 126.45 40.8503 125.52 39.2568 123.562C37.5659 120.181 38.0758 116.337 38.0515 112.615C38.0416 111.688 38.0317 110.761 38.0215 109.806C37.9898 106.733 37.9651 103.659 37.9404 100.586C37.9198 98.4589 37.8988 96.3318 37.8774 94.2047C37.8222 88.5988 37.7728 82.9928 37.7246 77.3868C37.6744 71.6693 37.6187 65.9518 37.5635 60.2344C37.4558 49.0105 37.3544 37.7865 37.2568 26.5625C36.9268 26.5625 36.5968 26.5625 36.2568 26.5625C36.2532 27.6929 36.2495 28.8233 36.2458 29.9879C36.2087 40.6689 36.1509 51.3496 36.0729 62.0303C36.0335 67.5207 36.0013 73.0109 35.9858 78.5015C35.9706 83.8055 35.9361 89.1091 35.8885 94.413C35.8737 96.431 35.8658 98.4491 35.8649 100.467C35.8456 123.5 35.8456 123.5 29.4701 130.534C25.8927 133.865 22.6097 134.988 17.7568 135.25C12.2483 134.906 8.23718 133.43 4.25682 129.562C0.456065 124.513 -0.543537 119.765 0.256817 113.562C3.26739 107.541 8.19796 102.936 14.3193 100.188C17.3871 99.5348 20.1295 99.4136 23.2568 99.5625C22.7328 100.272 22.7328 100.272 22.1982 100.996C18.7124 106.062 17.0938 110.366 17.2568 116.562C17.5486 117.906 17.8706 119.244 18.2568 120.562C19.6932 120.758 21.131 120.944 22.5693 121.125C23.3698 121.229 24.1703 121.334 24.9951 121.441C27.425 121.71 27.425 121.71 30.2568 120.562C31.3098 117.788 31.3857 115.118 31.3973 112.174C31.403 111.302 31.4087 110.43 31.4146 109.531C31.4157 108.583 31.4168 107.634 31.4179 106.657C31.4229 105.651 31.4279 104.646 31.433 103.61C31.4476 100.284 31.4544 96.9587 31.4599 93.6328C31.4657 91.3212 31.4715 89.0096 31.4772 86.698C31.4877 81.8509 31.4936 77.0038 31.4971 72.1567C31.5025 65.947 31.5266 59.7375 31.555 53.5278C31.5736 48.7528 31.5789 43.9779 31.5804 39.2029C31.5834 36.9136 31.5914 34.6243 31.6046 32.335C31.6216 29.1322 31.6198 25.9299 31.6133 22.7271C31.6225 21.7824 31.6317 20.8378 31.6412 19.8646C31.6083 14.676 31.1676 11.0499 28.2568 6.5625C25.0084 4.1262 21.2121 4.01888 17.2568 3.5625C16.9268 2.5725 16.5968 1.5825 16.2568 0.5625Z" fill="white"/>
<path d="M84.2568 116.562C84.3312 122.416 84.3855 128.269 84.4216 134.122C84.4367 136.112 84.4571 138.101 84.4831 140.09C84.5197 142.957 84.5366 145.824 84.5498 148.691C84.5653 149.574 84.5808 150.457 84.5967 151.366C84.5984 157.466 83.8586 162.468 79.792 167.305C74.8801 171.083 71.6628 171.69 65.5703 171.676C64.4294 171.676 63.2885 171.676 62.1131 171.676C60.8869 171.671 59.6608 171.665 58.3974 171.66C57.1379 171.659 55.8784 171.657 54.5807 171.656C51.2402 171.651 47.8997 171.642 44.5591 171.631C41.1472 171.621 37.7352 171.616 34.3232 171.611C27.6344 171.6 20.9456 171.584 14.2568 171.562C13.7618 170.077 13.7618 170.077 13.2568 168.562C14.2352 168.453 15.2136 168.343 16.2217 168.23C23.5405 167.362 30.3409 166.232 37.2568 163.562C37.2568 158.612 37.2568 153.662 37.2568 148.562C32.488 147.528 32.488 147.528 28.2568 148.562C29.5251 144.758 30.688 144.453 34.1279 142.516C35.6843 141.629 35.6843 141.629 37.2722 140.725C38.4015 140.094 39.5308 139.463 40.6943 138.812C41.8583 138.155 43.0218 137.497 44.1848 136.838C46.001 135.809 47.8176 134.78 49.6361 133.755C54.0081 131.287 58.3423 128.76 62.6631 126.203C64.4342 125.16 66.2059 124.118 67.9776 123.076C69.677 122.073 71.3711 121.06 73.0652 120.048C74.0965 119.444 75.1278 118.841 76.1904 118.219C77.0985 117.681 78.0065 117.142 78.9421 116.588C81.2568 115.562 81.2568 115.562 84.2568 116.562Z" fill="white"/>
</svg>
